# Made in Blockbench 4.12.4
mtllib turbine_stage_v2.mtl

o side.4
v 0.84234125 1.916865 0.375
v 0.84234125 1.916865 -0.375
v 1.416865 1.34234125 -0.375
v 1.416865 1.34234125 0.375
v 1.433438125 1.502545 -0.28125
v 1.433438125 1.502545 0.28125
v 1.002545 1.933438125 -0.28125
v 1.002545 1.933438125 0.28125
vt 0.30078125 0.58984375
vt 0.25390625 0.58984375
vt 0.25390625 0.5390625
vt 0.30078125 0.5390625
vt 0.19140625 0.82421875
vt 0.23828125 0.82421875
vt 0.232421875 0.8359375
vt 0.197265625 0.8359375
vt 0.359375 0.52734375
vt 0.39453125 0.52734375
vt 0.39453125 0.56640625
vt 0.359375 0.56640625
vt 0.236328125 0.8671875
vt 0.201171875 0.8671875
vt 0.1953125 0.85546875
vt 0.2421875 0.85546875
vt 0.195312421875 0.5390625
vt 0.1889647265625 0.546875
vt 0.1508791796875 0.546875
vt 0.14453125 0.5390625
vt 0.140625 0.7983398046875
vt 0.1328125 0.8046875
vt 0.1328125 0.753906328125
vt 0.140625 0.7602542578125
vn -0.7071067811865476 -0.7071067811865476 0
vn 0.9946915883825034 -0.10290113702526711 0
vn 0.7071067811865476 0.7071067811865476 0
vn -0.10290113702526711 0.9946915883825034 0
vn 0.4242637926876921 0.4242637926876921 -0.8000002927677653
vn 0.4242637926876921 0.4242637926876921 0.8000002927677653
usemtl turbine
f 1/1/1 2/2/1 3/3/1 4/4/1
f 4/5/2 3/6/2 5/7/2 6/8/2
f 6/9/3 5/10/3 7/11/3 8/12/3
f 8/13/4 7/14/4 2/15/4 1/16/4
f 2/17/5 7/18/5 5/19/5 3/20/5
f 8/21/6 1/22/6 4/23/6 6/24/6
o side.3
v 1.416865 -0.34234125000000004 0.375
v 1.416865 -0.34234125000000004 -0.375
v 0.84234125 -0.916865 -0.375
v 0.84234125 -0.916865 0.375
v 1.002545 -0.9334381249999999 -0.28125
v 1.002545 -0.9334381249999999 0.28125
v 1.433438125 -0.502545 -0.28125
v 1.433438125 -0.502545 0.28125
vt 0.4765625 0.95703125
vt 0.4296875 0.95703125
vt 0.4296875 0.90625
vt 0.4765625 0.90625
vt 0.1796875 0.671875
vt 0.1328125 0.671875
vt 0.138671875 0.66015625
vt 0.173828125 0.66015625
vt 0.43359375 0.6015625
vt 0.46875 0.6015625
vt 0.46875 0.640625
vt 0.43359375 0.640625
vt 0.244140625 0.83203125
vt 0.279296875 0.83203125
vt 0.28515625 0.84375
vt 0.23828125 0.84375
vt 0.20703125 0.546874921875
vt 0.19921875 0.5405269921875
vt 0.19921875 0.502441484375
vt 0.20703125 0.49609375
vt 0.4975583203125 0.87890625
vt 0.50390625 0.88671875
vt 0.453125078125 0.88671875
vt 0.4594727734375 0.87890625
vn -0.7071067811865476 0.7071067811865476 0
vn -0.10290113702526711 -0.9946915883825034 0
vn 0.7071067811865476 -0.7071067811865476 0
vn 0.9946915883825034 0.10290113702526711 0
vn 0.4242637926876921 -0.4242637926876921 -0.8000002927677653
vn 0.4242637926876921 -0.4242637926876921 0.8000002927677653
usemtl turbine
f 9/25/7 10/26/7 11/27/7 12/28/7
f 12/29/8 11/30/8 13/31/8 14/32/8
f 14/33/9 13/34/9 15/35/9 16/36/9
f 16/37/10 15/38/10 10/39/10 9/40/10
f 10/41/11 15/42/11 13/43/11 11/44/11
f 16/45/12 9/46/12 12/47/12 14/48/12
o side.2
v -0.84234125 -0.916865 0.375
v -0.84234125 -0.916865 -0.375
v -1.416865 -0.34234125000000004 -0.375
v -1.416865 -0.34234125000000004 0.375
v -1.433438125 -0.502545 -0.28125
v -1.433438125 -0.502545 0.28125
v -1.002545 -0.9334381249999999 -0.28125
v -1.002545 -0.9334381249999999 0.28125
vt 0.42578125 0.51953125
vt 0.47265625 0.51953125
vt 0.47265625 0.5703125
vt 0.42578125 0.5703125
vt 0.4296875 0.640625
vt 0.3828125 0.640625
vt 0.388671875 0.62890625
vt 0.423828125 0.62890625
vt 0.48046875 0.72265625
vt 0.4453125 0.72265625
vt 0.4453125 0.68359375
vt 0.48046875 0.68359375
vt 0.435546875 0.890625
vt 0.470703125 0.890625
vt 0.4765625 0.90234375
vt 0.4296875 0.90234375
vt 0.453125078125 0.86328125
vt 0.4594727734375 0.85546875
vt 0.4975583203125 0.85546875
vt 0.50390625 0.86328125
vt 0.1328125 0.7055664453125
vt 0.140625 0.69921875
vt 0.140625 0.749999921875
vt 0.1328125 0.7436519921875
vn 0.7071067811865476 0.7071067811865476 0
vn -0.9946915883825034 0.10290113702526711 0
vn -0.7071067811865476 -0.7071067811865476 0
vn 0.10290113702526711 -0.9946915883825034 0
vn -0.4242637926876921 -0.4242637926876921 -0.8000002927677653
vn -0.4242637926876921 -0.4242637926876921 0.8000002927677653
usemtl turbine
f 17/49/13 18/50/13 19/51/13 20/52/13
f 20/53/14 19/54/14 21/55/14 22/56/14
f 22/57/15 21/58/15 23/59/15 24/60/15
f 24/61/16 23/62/16 18/63/16 17/64/16
f 18/65/17 23/66/17 21/67/17 19/68/17
f 24/69/18 17/70/18 20/71/18 22/72/18
o side.1
v -1.416865 1.34234125 0.375
v -1.416865 1.34234125 -0.375
v -0.84234125 1.916865 -0.375
v -0.84234125 1.916865 0.375
v -1.002545 1.933438125 -0.28125
v -1.002545 1.933438125 0.28125
v -1.433438125 1.502545 -0.28125
v -1.433438125 1.502545 0.28125
vt 0.04296875 0.515625
vt 0.08984375 0.515625
vt 0.08984375 0.56640625
vt 0.04296875 0.56640625
vt 0.09375 0.53515625
vt 0.140625 0.53515625
vt 0.134765625 0.546875
vt 0.099609375 0.546875
vt 0.484375 0.82421875
vt 0.44921875 0.82421875
vt 0.44921875 0.78515625
vt 0.484375 0.78515625
vt 0.490234375 0.6796875
vt 0.455078125 0.6796875
vt 0.44921875 0.66796875
vt 0.49609375 0.66796875
vt 0.3125 0.757812578125
vt 0.3203125 0.7641605078125
vt 0.3203125 0.802246015625
vt 0.3125 0.80859375
vt 0.4594729296875 0.875
vt 0.453125 0.8671875
vt 0.503906171875 0.8671875
vt 0.4975584765625 0.875
vn 0.7071067811865476 -0.7071067811865476 0
vn 0.10290113702526711 0.9946915883825034 0
vn -0.7071067811865476 0.7071067811865476 0
vn -0.9946915883825034 -0.10290113702526711 0
vn -0.4242637926876921 0.4242637926876921 -0.8000002927677653
vn -0.4242637926876921 0.4242637926876921 0.8000002927677653
usemtl turbine
f 25/73/19 26/74/19 27/75/19 28/76/19
f 28/77/20 27/78/20 29/79/20 30/80/20
f 30/81/21 29/82/21 31/83/21 32/84/21
f 32/85/22 31/86/22 26/87/22 25/88/22
f 26/89/23 31/90/23 29/91/23 27/92/23
f 32/93/24 25/94/24 28/95/24 30/96/24
o Tube.1
v 1.443561875 -0.24742874999999998 -0.5
v 1.501304375 -0.277325625 -0.5
v 0.777325625 -1.001304375 -0.5
v 0.74742875 -0.9435618750000001 -0.5
v 1.501304375 -0.277325625 -0.375
v 0.777325625 -1.001304375 -0.375
v 1.501304375 -0.277325625 0
v 0.777325625 -1.001304375 0
v 1.501304375 -0.277325625 0.375
v 0.777325625 -1.001304375 0.375
v 1.501304375 -0.277325625 0.5
v 0.777325625 -1.001304375 0.5
v 1.443561875 -0.24742874999999998 0.5
v 0.74742875 -0.9435618750000001 0.5
v 1.443561875 -0.24742874999999998 0.375
v 0.74742875 -0.9435618750000001 0.375
v 1.443561875 -0.24742874999999998 0
v 0.74742875 -0.9435618750000001 0
v 1.443561875 -0.24742874999999998 -0.375
v 0.74742875 -0.9435618750000001 -0.375
v -0.777325625 -1.001304375 -0.5
v -0.74742875 -0.9435618750000001 -0.5
v -0.777325625 -1.001304375 -0.375
v -0.777325625 -1.001304375 0
v -0.777325625 -1.001304375 0.375
v -0.777325625 -1.001304375 0.5
v -0.74742875 -0.9435618750000001 0.5
v -0.74742875 -0.9435618750000001 0.375
v -0.74742875 -0.9435618750000001 0
v -0.74742875 -0.9435618750000001 -0.375
v -1.501304375 -0.277325625 -0.5
v -1.443561875 -0.24742874999999998 -0.5
v -1.501304375 -0.277325625 -0.375
v -1.501304375 -0.277325625 0
v -1.501304375 -0.277325625 0.375
v -1.501304375 -0.277325625 0.5
v -1.443561875 -0.24742874999999998 0.5
v -1.443561875 -0.24742874999999998 0.375
v -1.443561875 -0.24742874999999998 0
v -1.443561875 -0.24742874999999998 -0.375
v -1.501304375 1.277325625 -0.5
v -1.443561875 1.24742875 -0.5
v -1.501304375 1.277325625 -0.375
v -1.501304375 1.277325625 0
v -1.501304375 1.277325625 0.375
v -1.501304375 1.277325625 0.5
v -1.443561875 1.24742875 0.5
v -1.443561875 1.24742875 0.375
v -1.443561875 1.24742875 0
v -1.443561875 1.24742875 -0.375
v -0.777325625 2.001304375 -0.5
v -0.74742875 1.943561875 -0.5
v -0.777325625 2.001304375 -0.375
v -0.777325625 2.001304375 0
v -0.777325625 2.001304375 0.375
v -0.777325625 2.001304375 0.5
v -0.74742875 1.943561875 0.5
v -0.74742875 1.943561875 0.375
v -0.74742875 1.943561875 0
v -0.74742875 1.943561875 -0.375
v 0.777325625 2.001304375 -0.5
v 0.74742875 1.943561875 -0.5
v 0.777325625 2.001304375 -0.375
v 0.777325625 2.001304375 0
v 0.777325625 2.001304375 0.375
v 0.777325625 2.001304375 0.5
v 0.74742875 1.943561875 0.5
v 0.74742875 1.943561875 0.375
v 0.74742875 1.943561875 0
v 0.74742875 1.943561875 -0.375
v 1.501304375 1.277325625 -0.5
v 1.443561875 1.24742875 -0.5
v 1.501304375 1.277325625 -0.375
v 1.501304375 1.277325625 0
v 1.501304375 1.277325625 0.375
v 1.501304375 1.277325625 0.5
v 1.443561875 1.24742875 0.5
v 1.443561875 1.24742875 0.375
v 1.443561875 1.24742875 0
v 1.443561875 1.24742875 -0.375
vt 0.00548046875 0.85945390625
vt 0.001871484375 0.857585546875
vt 0.0471203125 0.81233671875
vt 0.048988671875 0.815945703125
vt 0.35546875 0.99758515625
vt 0.34765625 0.99758515625
vt 0.34765625 0.93359375
vt 0.35546875 0.93359375
vt 0.34765625 0.99758515625
vt 0.32421875 0.99758515625
vt 0.32421875 0.93359375
vt 0.34765625 0.93359375
vt 0.32421875 0.99758515625
vt 0.30078125 0.99758515625
vt 0.30078125 0.93359375
vt 0.32421875 0.93359375
vt 0.30078125 0.99758515625
vt 0.29296875 0.99758515625
vt 0.29296875 0.93359375
vt 0.30078125 0.93359375
vt 0.337972265625 0.709148046875
vt 0.33436328125 0.71101640625
vt 0.290855078125 0.6675082031249999
vt 0.2927234375 0.66389921875
vt 0.37890625 0.6796875
vt 0.37109375 0.6796875
vt 0.37109375 0.6181578125
vt 0.37890625 0.6181578125
vt 0.37109375 0.6796875
vt 0.34765625 0.6796875
vt 0.34765625 0.6181578125
vt 0.37109375 0.6181578125
vt 0.34765625 0.6796875
vt 0.32421875 0.6796875
vt 0.32421875 0.6181578125
vt 0.34765625 0.6181578125
vt 0.32421875 0.6796875
vt 0.31640625 0.6796875
vt 0.31640625 0.6181578125
vt 0.32421875 0.6181578125
vt 0.048988671875 0.815945703125
vt 0.0471203125 0.81233671875
vt 0.1442859375 0.81233671875
vt 0.142417578125 0.815945703125
vt 0.1286609375 0.90625
vt 0.1286609375 0.9140625
vt 0.0314953125 0.9140625
vt 0.0314953125 0.90625
vt 0.1286609375 0.9140625
vt 0.1286609375 0.9375
vt 0.0314953125 0.9375
vt 0.0314953125 0.9140625
vt 0.1286609375 0.9375
vt 0.1286609375 0.9609375
vt 0.0314953125 0.9609375
vt 0.0314953125 0.9375
vt 0.1286609375 0.9609375
vt 0.1286609375 0.96875
vt 0.0314953125 0.96875
vt 0.0314953125 0.9609375
vt 0.2927234375 0.66389921875
vt 0.290855078125 0.6675082031249999
vt 0.197426171875 0.6675082031249999
vt 0.1955578125 0.66389921875
vt 0.288901953125 0.9375
vt 0.288901953125 0.9453125
vt 0.195473046875 0.9453125
vt 0.195473046875 0.9375
vt 0.288901953125 0.9453125
vt 0.288901953125 0.96875
vt 0.195473046875 0.96875
vt 0.195473046875 0.9453125
vt 0.288901953125 0.96875
vt 0.288901953125 0.9921875
vt 0.195473046875 0.9921875
vt 0.195473046875 0.96875
vt 0.288901953125 0.9921875
vt 0.288901953125 1
vt 0.195473046875 1
vt 0.195473046875 0.9921875
vt 0.142417578125 0.815945703125
vt 0.1442859375 0.81233671875
vt 0.189534765625 0.857585546875
vt 0.18592578125 0.85945390625
vt 0.06640625 0.640625
vt 0.07421875 0.640625
vt 0.07421875 0.70461640625
vt 0.06640625 0.70461640625
vt 0.07421875 0.640625
vt 0.09765625 0.640625
vt 0.09765625 0.70461640625
vt 0.07421875 0.70461640625
vt 0.09765625 0.640625
vt 0.12109375 0.640625
vt 0.12109375 0.70461640625
vt 0.09765625 0.70461640625
vt 0.12109375 0.640625
vt 0.12890625 0.640625
vt 0.12890625 0.70461640625
vt 0.12109375 0.70461640625
vt 0.1955578125 0.66389921875
vt 0.197426171875 0.6675082031249999
vt 0.15391796875 0.71101640625
vt 0.150308984375 0.709148046875
vt 0.1328125 0.5947203125
vt 0.140625 0.5947203125
vt 0.140625 0.65625
vt 0.1328125 0.65625
vt 0.140625 0.5947203125
vt 0.1640625 0.5947203125
vt 0.1640625 0.65625
vt 0.140625 0.65625
vt 0.1640625 0.5947203125
vt 0.1875 0.5947203125
vt 0.1875 0.65625
vt 0.1640625 0.65625
vt 0.1875 0.5947203125
vt 0.1953125 0.5947203125
vt 0.1953125 0.65625
vt 0.1875 0.65625
vt 0.18592578125 0.85945390625
vt 0.189534765625 0.857585546875
vt 0.189534765625 0.954751171875
vt 0.18592578125 0.9528828125
vt 0.1796875 0.7231468750000001
vt 0.1875 0.7231468750000001
vt 0.1875 0.8203125
vt 0.1796875 0.8203125
vt 0.1875 0.7231468750000001
vt 0.2109375 0.7231468750000001
vt 0.2109375 0.8203125
vt 0.1875 0.8203125
vt 0.2109375 0.7231468750000001
vt 0.234375 0.7231468750000001
vt 0.234375 0.8203125
vt 0.2109375 0.8203125
vt 0.234375 0.7231468750000001
vt 0.2421875 0.7231468750000001
vt 0.2421875 0.8203125
vt 0.234375 0.8203125
vt 0.150308984375 0.709148046875
vt 0.15391796875 0.71101640625
vt 0.15391796875 0.8044453125
vt 0.150308984375 0.806313671875
vt 0.06640625 0.71125859375
vt 0.07421875 0.71125859375
vt 0.07421875 0.8046875
vt 0.06640625 0.8046875
vt 0.07421875 0.71125859375
vt 0.09765625 0.71125859375
vt 0.09765625 0.8046875
vt 0.07421875 0.8046875
vt 0.09765625 0.71125859375
vt 0.12109375 0.71125859375
vt 0.12109375 0.8046875
vt 0.09765625 0.8046875
vt 0.12109375 0.71125859375
vt 0.12890625 0.71125859375
vt 0.12890625 0.8046875
vt 0.12109375 0.8046875
vt 0.18592578125 0.9528828125
vt 0.189534765625 0.954751171875
vt 0.1442859375 1
vt 0.142417578125 0.996391015625
vt 0.29296875 0.86569609375
vt 0.30078125 0.86569609375
vt 0.30078125 0.9296875
vt 0.29296875 0.9296875
vt 0.30078125 0.86569609375
vt 0.32421875 0.86569609375
vt 0.32421875 0.9296875
vt 0.30078125 0.9296875
vt 0.32421875 0.86569609375
vt 0.34765625 0.86569609375
vt 0.34765625 0.9296875
vt 0.32421875 0.9296875
vt 0.34765625 0.86569609375
vt 0.35546875 0.86569609375
vt 0.35546875 0.9296875
vt 0.34765625 0.9296875
vt 0.150308984375 0.806313671875
vt 0.15391796875 0.8044453125
vt 0.197426171875 0.847953515625
vt 0.1955578125 0.8515625
vt 0.34375 0.796875
vt 0.3515625 0.796875
vt 0.3515625 0.8584046875
vt 0.34375 0.8584046875
vt 0.3515625 0.796875
vt 0.375 0.796875
vt 0.375 0.8584046875
vt 0.3515625 0.8584046875
vt 0.375 0.796875
vt 0.3984375 0.796875
vt 0.3984375 0.8584046875
vt 0.375 0.8584046875
vt 0.3984375 0.796875
vt 0.40625 0.796875
vt 0.40625 0.8584046875
vt 0.3984375 0.8584046875
vt 0.142417578125 0.996391015625
vt 0.1442859375 1
vt 0.0471203125 1
vt 0.048988671875 0.996391015625
vt 0.0354015625 0.90234375
vt 0.0354015625 0.89453125
vt 0.1325671875 0.89453125
vt 0.1325671875 0.90234375
vt 0.0354015625 0.89453125
vt 0.0354015625 0.87109375
vt 0.1325671875 0.87109375
vt 0.1325671875 0.89453125
vt 0.0354015625 0.87109375
vt 0.0354015625 0.84765625
vt 0.1325671875 0.84765625
vt 0.1325671875 0.87109375
vt 0.0354015625 0.84765625
vt 0.0354015625 0.83984375
vt 0.1325671875 0.83984375
vt 0.1325671875 0.84765625
vt 0.1955578125 0.8515625
vt 0.197426171875 0.847953515625
vt 0.290855078125 0.847953515625
vt 0.2927234375 0.8515625
vt 0.195473046875 0.93359375
vt 0.195473046875 0.92578125
vt 0.288901953125 0.92578125
vt 0.288901953125 0.93359375
vt 0.195473046875 0.92578125
vt 0.195473046875 0.90234375
vt 0.288901953125 0.90234375
vt 0.288901953125 0.92578125
vt 0.195473046875 0.90234375
vt 0.195473046875 0.87890625
vt 0.288901953125 0.87890625
vt 0.288901953125 0.90234375
vt 0.195473046875 0.87890625
vt 0.195473046875 0.87109375
vt 0.288901953125 0.87109375
vt 0.288901953125 0.87890625
vt 0.048988671875 0.996391015625
vt 0.0471203125 1
vt 0.001871484375 0.954751171875
vt 0.00548046875 0.9528828125
vt 0.0625 0.703125
vt 0.0546875 0.703125
vt 0.0546875 0.63913359375
vt 0.0625 0.63913359375
vt 0.0546875 0.703125
vt 0.03125 0.703125
vt 0.03125 0.63913359375
vt 0.0546875 0.63913359375
vt 0.03125 0.703125
vt 0.0078125 0.703125
vt 0.0078125 0.63913359375
vt 0.03125 0.63913359375
vt 0.0078125 0.703125
vt 0 0.703125
vt 0 0.63913359375
vt 0.0078125 0.63913359375
vt 0.2927234375 0.8515625
vt 0.290855078125 0.847953515625
vt 0.33436328125 0.8044453125
vt 0.337972265625 0.806313671875
vt 0.26171875 0.6552796875
vt 0.25390625 0.6552796875
vt 0.25390625 0.59375
vt 0.26171875 0.59375
vt 0.25390625 0.6552796875
vt 0.23046875 0.6552796875
vt 0.23046875 0.59375
vt 0.25390625 0.59375
vt 0.23046875 0.6552796875
vt 0.20703125 0.6552796875
vt 0.20703125 0.59375
vt 0.23046875 0.59375
vt 0.20703125 0.6552796875
vt 0.19921875 0.6552796875
vt 0.19921875 0.59375
vt 0.20703125 0.59375
vt 0.00548046875 0.9528828125
vt 0.001871484375 0.954751171875
vt 0.001871484375 0.857585546875
vt 0.00548046875 0.85945390625
vt 0.0625 0.8046875
vt 0.0546875 0.8046875
vt 0.0546875 0.7075218750000001
vt 0.0625 0.7075218750000001
vt 0.0546875 0.8046875
vt 0.03125 0.8046875
vt 0.03125 0.7075218750000001
vt 0.0546875 0.7075218750000001
vt 0.03125 0.8046875
vt 0.0078125 0.8046875
vt 0.0078125 0.7075218750000001
vt 0.03125 0.7075218750000001
vt 0.0078125 0.8046875
vt 0 0.8046875
vt 0 0.7075218750000001
vt 0.0078125 0.7075218750000001
vt 0.337972265625 0.806313671875
vt 0.33436328125 0.8044453125
vt 0.33436328125 0.71101640625
vt 0.337972265625 0.709148046875
vt 0.30859375 0.8203125
vt 0.30078125 0.8203125
vt 0.30078125 0.72688359375
vt 0.30859375 0.72688359375
vt 0.30078125 0.8203125
vt 0.27734375 0.8203125
vt 0.27734375 0.72688359375
vt 0.30078125 0.72688359375
vt 0.27734375 0.8203125
vt 0.25390625 0.8203125
vt 0.25390625 0.72688359375
vt 0.27734375 0.72688359375
vt 0.25390625 0.8203125
vt 0.24609375 0.8203125
vt 0.24609375 0.72688359375
vt 0.25390625 0.72688359375
vn 0 0 -1
vn 0.7071067811865476 -0.7071067811865476 0
vn 0.7071067811865476 -0.7071067811865476 0
vn 0.7071067811865476 -0.7071067811865476 0
vn 0.7071067811865476 -0.7071067811865476 0
vn 0 0 1
vn -0.7071067811865476 0.7071067811865476 0
vn -0.7071067811865476 0.7071067811865476 0
vn -0.7071067811865476 0.7071067811865476 0
vn -0.7071067811865476 0.7071067811865476 0
vn 0 0 -1
vn 0 -1 0
vn 0 -1 0
vn 0 -1 0
vn 0 -1 0
vn 0 0 1
vn 0 1 0
vn 0 1 0
vn 0 1 0
vn 0 1 0
vn 0 0 -1
vn -0.7071067811865476 -0.7071067811865476 0
vn -0.7071067811865476 -0.7071067811865476 0
vn -0.7071067811865476 -0.7071067811865476 0
vn -0.7071067811865476 -0.7071067811865476 0
vn 0 0 1
vn 0.7071067811865476 0.7071067811865476 0
vn 0.7071067811865476 0.7071067811865476 0
vn 0.7071067811865476 0.7071067811865476 0
vn 0.7071067811865476 0.7071067811865476 0
vn 0 0 -1
vn -1 0 0
vn -1 0 0
vn -1 0 0
vn -1 0 0
vn 0 0 1
vn 1 0 0
vn 1 0 0
vn 1 0 0
vn 1 0 0
vn 0 0 -1
vn -0.7071067811865476 0.7071067811865476 0
vn -0.7071067811865476 0.7071067811865476 0
vn -0.7071067811865476 0.7071067811865476 0
vn -0.7071067811865476 0.7071067811865476 0
vn 0 0 1
vn 0.7071067811865476 -0.7071067811865476 0
vn 0.7071067811865476 -0.7071067811865476 0
vn 0.7071067811865476 -0.7071067811865476 0
vn 0.7071067811865476 -0.7071067811865476 0
vn 0 0 -1
vn 0 1 0
vn 0 1 0
vn 0 1 0
vn 0 1 0
vn 0 0 1
vn 0 -1 0
vn 0 -1 0
vn 0 -1 0
vn 0 -1 0
vn 0 0 -1
vn 0.7071067811865476 0.7071067811865476 0
vn 0.7071067811865476 0.7071067811865476 0
vn 0.7071067811865476 0.7071067811865476 0
vn 0.7071067811865476 0.7071067811865476 0
vn 0 0 1
vn -0.7071067811865476 -0.7071067811865476 0
vn -0.7071067811865476 -0.7071067811865476 0
vn -0.7071067811865476 -0.7071067811865476 0
vn -0.7071067811865476 -0.7071067811865476 0
vn 0 0 -1
vn 1 0 0
vn 1 0 0
vn 1 0 0
vn 1 0 0
vn 0 0 1
vn -1 0 0
vn -1 0 0
vn -1 0 0
vn -1 0 0
usemtl turbine
f 33/97/25 34/98/25 35/99/25 36/100/25
f 34/101/26 37/102/26 38/103/26 35/104/26
f 37/105/27 39/106/27 40/107/27 38/108/27
f 39/109/28 41/110/28 42/111/28 40/112/28
f 41/113/29 43/114/29 44/115/29 42/116/29
f 43/117/30 45/118/30 46/119/30 44/120/30
f 45/121/31 47/122/31 48/123/31 46/124/31
f 47/125/32 49/126/32 50/127/32 48/128/32
f 49/129/33 51/130/33 52/131/33 50/132/33
f 51/133/34 33/134/34 36/135/34 52/136/34
f 36/137/35 35/138/35 53/139/35 54/140/35
f 35/141/36 38/142/36 55/143/36 53/144/36
f 38/145/37 40/146/37 56/147/37 55/148/37
f 40/149/38 42/150/38 57/151/38 56/152/38
f 42/153/39 44/154/39 58/155/39 57/156/39
f 44/157/40 46/158/40 59/159/40 58/160/40
f 46/161/41 48/162/41 60/163/41 59/164/41
f 48/165/42 50/166/42 61/167/42 60/168/42
f 50/169/43 52/170/43 62/171/43 61/172/43
f 52/173/44 36/174/44 54/175/44 62/176/44
f 54/177/45 53/178/45 63/179/45 64/180/45
f 53/181/46 55/182/46 65/183/46 63/184/46
f 55/185/47 56/186/47 66/187/47 65/188/47
f 56/189/48 57/190/48 67/191/48 66/192/48
f 57/193/49 58/194/49 68/195/49 67/196/49
f 58/197/50 59/198/50 69/199/50 68/200/50
f 59/201/51 60/202/51 70/203/51 69/204/51
f 60/205/52 61/206/52 71/207/52 70/208/52
f 61/209/53 62/210/53 72/211/53 71/212/53
f 62/213/54 54/214/54 64/215/54 72/216/54
f 64/217/55 63/218/55 73/219/55 74/220/55
f 63/221/56 65/222/56 75/223/56 73/224/56
f 65/225/57 66/226/57 76/227/57 75/228/57
f 66/229/58 67/230/58 77/231/58 76/232/58
f 67/233/59 68/234/59 78/235/59 77/236/59
f 68/237/60 69/238/60 79/239/60 78/240/60
f 69/241/61 70/242/61 80/243/61 79/244/61
f 70/245/62 71/246/62 81/247/62 80/248/62
f 71/249/63 72/250/63 82/251/63 81/252/63
f 72/253/64 64/254/64 74/255/64 82/256/64
f 74/257/65 73/258/65 83/259/65 84/260/65
f 73/261/66 75/262/66 85/263/66 83/264/66
f 75/265/67 76/266/67 86/267/67 85/268/67
f 76/269/68 77/270/68 87/271/68 86/272/68
f 77/273/69 78/274/69 88/275/69 87/276/69
f 78/277/70 79/278/70 89/279/70 88/280/70
f 79/281/71 80/282/71 90/283/71 89/284/71
f 80/285/72 81/286/72 91/287/72 90/288/72
f 81/289/73 82/290/73 92/291/73 91/292/73
f 82/293/74 74/294/74 84/295/74 92/296/74
f 84/297/75 83/298/75 93/299/75 94/300/75
f 83/301/76 85/302/76 95/303/76 93/304/76
f 85/305/77 86/306/77 96/307/77 95/308/77
f 86/309/78 87/310/78 97/311/78 96/312/78
f 87/313/79 88/314/79 98/315/79 97/316/79
f 88/317/80 89/318/80 99/319/80 98/320/80
f 89/321/81 90/322/81 100/323/81 99/324/81
f 90/325/82 91/326/82 101/327/82 100/328/82
f 91/329/83 92/330/83 102/331/83 101/332/83
f 92/333/84 84/334/84 94/335/84 102/336/84
f 94/337/85 93/338/85 103/339/85 104/340/85
f 93/341/86 95/342/86 105/343/86 103/344/86
f 95/345/87 96/346/87 106/347/87 105/348/87
f 96/349/88 97/350/88 107/351/88 106/352/88
f 97/353/89 98/354/89 108/355/89 107/356/89
f 98/357/90 99/358/90 109/359/90 108/360/90
f 99/361/91 100/362/91 110/363/91 109/364/91
f 100/365/92 101/366/92 111/367/92 110/368/92
f 101/369/93 102/370/93 112/371/93 111/372/93
f 102/373/94 94/374/94 104/375/94 112/376/94
f 104/377/95 103/378/95 34/379/95 33/380/95
f 103/381/96 105/382/96 37/383/96 34/384/96
f 105/385/97 106/386/97 39/387/97 37/388/97
f 106/389/98 107/390/98 41/391/98 39/392/98
f 107/393/99 108/394/99 43/395/99 41/396/99
f 108/397/100 109/398/100 45/399/100 43/400/100
f 109/401/101 110/402/101 47/403/101 45/404/101
f 110/405/102 111/406/102 49/407/102 47/408/102
f 111/409/103 112/410/103 51/411/103 49/412/103
f 112/413/104 104/414/104 33/415/104 51/416/104
o blade.8
v 0.082815625 0.9 0.302943125
v -0.141164375 0.9 -0.280545
v -0.082815625 0.9 -0.302943125
v 0.141164375 0.9 0.280545
v -0.082815625 1.75895875 -0.302943125
v 0.141164375 1.936610625 0.280545
v -0.141164375 1.75895875 -0.280545
v 0.082815625 1.936610625 0.302943125
vt 0.0390625 0.8125
vt 0 0.8125
vt 0 0.80859375
vt 0.0390625 0.80859375
vt 0.13671875 0.89453125
vt 0.17578125 0.89453125
vt 0.17578125 0.949833984375
vt 0.13671875 0.9609375
vt 0.1640625 0.890625
vt 0.1640625 0.8515625
vt 0.16796875 0.8515625
vt 0.16796875 0.890625
vt 0.3125 0.66015625
vt 0.2734375 0.649052734375
vt 0.2734375 0.59375
vt 0.3125 0.59375
vt 0.26953125 0.6015625
vt 0.26953125 0.65625
vt 0.265625 0.65625
vt 0.265625 0.6015625
vt 0.32421875 0.80078125
vt 0.32421875 0.734375
vt 0.328125 0.734375
vt 0.328125 0.80078125
vn 0 -1 0
vn 0.9335804832703474 0 -0.3583678016461645
vn -0.09798273935126979 0.9618969302707514 -0.25525218573976266
vn -0.9335804832703474 0 0.3583678016461645
vn -0.35836987935480025 0 -0.9335796857104518
vn 0.3583698793548003 0 0.9335796857104519
usemtl turbine
f 113/417/105 114/418/105 115/419/105 116/420/105
f 116/421/106 115/422/106 117/423/106 118/424/106
f 118/425/107 117/426/107 119/427/107 120/428/107
f 120/429/108 119/430/108 114/431/108 113/432/108
f 114/433/109 119/434/109 117/435/109 115/436/109
f 120/437/110 113/438/110 116/439/110 118/440/110
o blade.7
v 0.341401875 0.724283125 0.302943125
v 0.183024375 0.88266125 -0.280545
v 0.224283125 0.8414018750000001 -0.302943125
v 0.38266125 0.683024375 0.280545
v 0.83165875 1.448778125 -0.302943125
v 1.115655 1.41601875 0.280545
v 0.7904 1.490036875 -0.280545
v 1.07439625 1.4572775 0.302943125
vt 0.296875 0.68359375
vt 0.296875 0.72265625
vt 0.29296875 0.72265625
vt 0.29296875 0.68359375
vt 0.359375 0.93359375
vt 0.3984375 0.93359375
vt 0.3984375 0.9888969140625
vt 0.359375 1
vt 0.24609375 0.86328125
vt 0.28515625 0.86328125
vt 0.28515625 0.8671875
vt 0.24609375 0.8671875
vt 0.4476008984375 0.64453125
vt 0.4364976953125 0.68359375
vt 0.3828125 0.68359375
vt 0.3828125 0.64453125
vt 0.23046875 0.4921875
vt 0.23046875 0.546875
vt 0.2265625 0.546875
vt 0.2265625 0.4921875
vt 0.3125 0.859375
vt 0.24609375 0.859375
vt 0.24609375 0.85546875
vt 0.3125 0.85546875
vn -0.7071116282270327 -0.7071019341103539 0.000001873887759860068
vn 0.6601414110683156 -0.6601407317721101 -0.3583678719529922
vn 0.6108798909425828 0.7494481266750872 -0.25525137465874875
vn -0.6601410714203751 0.660141071420375 0.35836787195271635
vn -0.2534060223819333 0.2534060223819333 -0.9335795497123609
vn 0.25340434955546565 -0.2534043495554656 0.933580457835715
usemtl turbine
f 121/441/111 122/442/111 123/443/111 124/444/111
f 124/445/112 123/446/112 125/447/112 126/448/112
f 126/449/113 125/450/113 127/451/113 128/452/113
f 128/453/114 127/454/114 122/455/114 121/456/114
f 122/457/115 127/458/115 125/459/115 123/460/115
f 128/461/116 121/462/116 124/463/116 126/464/116
o blade.6
v 0.4 0.417184375 0.302943125
v 0.4 0.641164375 -0.280545
v 0.4 0.5828156250000001 -0.302943125
v 0.4 0.358835625 0.280545
v 1.25895875 0.5828156250000001 -0.302943125
v 1.436610625 0.358835625 0.280545
v 1.25895875 0.641164375 -0.280545
v 1.436610625 0.417184375 0.302943125
vt 0.31640625 0.71484375
vt 0.31640625 0.75390625
vt 0.3125 0.75390625
vt 0.3125 0.71484375
vt 0.26171875 0.6796875
vt 0.26171875 0.71875
vt 0.206416015625 0.71875
vt 0.1953125 0.6796875
vt 0.16015625 0.71484375
vt 0.19921875 0.71484375
vt 0.19921875 0.71875
vt 0.16015625 0.71875
vt 0.467941015625 0.9609375
vt 0.4568375 1
vt 0.403152734375 1
vt 0.403152734375 0.9609375
vt 0.296875 0.828125
vt 0.2421875 0.828125
vt 0.2421875 0.82421875
vt 0.296875 0.82421875
vt 0.515625 0.6640625
vt 0.44921875 0.6640625
vt 0.44921875 0.66015625
vt 0.515625 0.66015625
vn -1 0 0
vn 0 -0.9335804832703474 -0.3583678016461645
vn 0.9618969302707514 0.09798273935126979 -0.25525218573976266
vn 0 0.9335804832703474 0.3583678016461645
vn 0 0.35836987935480025 -0.9335796857104518
vn 0 -0.3583698793548003 0.9335796857104519
usemtl turbine
f 129/465/117 130/466/117 131/467/117 132/468/117
f 132/469/118 131/470/118 133/471/118 134/472/118
f 134/473/119 133/474/119 135/475/119 136/476/119
f 136/477/120 135/478/120 130/479/120 129/480/120
f 130/481/121 135/482/121 133/483/121 131/484/121
f 136/485/122 129/486/122 132/487/122 134/488/122
o blade.5
v 0.224283125 0.15859812499999998 0.302943125
v 0.38266125 0.316975625 -0.280545
v 0.341401875 0.275716875 -0.302943125
v 0.183024375 0.11733874999999999 0.280545
v 0.948778125 -0.33165875 -0.302943125
v 0.91601875 -0.6156550000000001 0.280545
v 0.990036875 -0.2904 -0.280545
v 0.9572775 -0.5743962499999999 0.302943125
vt 0.3359375 0.8203125
vt 0.3359375 0.859375
vt 0.33203125 0.859375
vt 0.33203125 0.8203125
vt 0.40625 0.6875
vt 0.40625 0.7265625
vt 0.3509467578125 0.7265625
vt 0.33984375 0.6875
vt 0.1328125 0.67578125
vt 0.171875 0.67578125
vt 0.171875 0.6796875
vt 0.1328125 0.6796875
vt 0.41015625 0.8219305859375
vt 0.44921875 0.8330337109375
vt 0.44921875 0.88671875
vt 0.41015625 0.88671875
vt 0.2578125 0.67578125
vt 0.203125 0.67578125
vt 0.203125 0.671875
vt 0.2578125 0.671875
vt 0.25 0.49609375
vt 0.25 0.5625
vt 0.24609375 0.5625
vt 0.24609375 0.49609375
vn -0.7071019341103539 0.7071116282270327 0.000001873887759860068
vn -0.6601407317721101 -0.6601414110683156 -0.3583678719529922
vn 0.7494481266750872 -0.6108798909425828 -0.25525137465874875
vn 0.660141071420375 0.6601410714203751 0.35836787195271635
vn 0.2534060223819333 0.2534060223819333 -0.9335795497123609
vn -0.2534043495554656 -0.25340434955546565 0.933580457835715
usemtl turbine
f 137/489/123 138/490/123 139/491/123 140/492/123
f 140/493/124 139/494/124 141/495/124 142/496/124
f 142/497/125 141/498/125 143/499/125 144/500/125
f 144/501/126 143/502/126 138/503/126 137/504/126
f 138/505/127 143/506/127 141/507/127 139/508/127
f 144/509/128 137/510/128 140/511/128 142/512/128
o blade.4
v -0.082815625 0.09999999999999998 0.302943125
v 0.141164375 0.09999999999999998 -0.280545
v 0.082815625 0.09999999999999998 -0.302943125
v -0.141164375 0.09999999999999998 0.280545
v 0.082815625 -0.7589587499999999 -0.302943125
v -0.141164375 -0.9366106249999999 0.280545
v 0.141164375 -0.7589587499999999 -0.280545
v -0.082815625 -0.9366106249999999 0.302943125
vt 0.453125 0.64453125
vt 0.4921875 0.64453125
vt 0.4921875 0.6484375
vt 0.453125 0.6484375
vt 0.4453125 0.79296875
vt 0.40625 0.79296875
vt 0.40625 0.739283984375
vt 0.4453125 0.72818046875
vt 0.1171875 0.59765625
vt 0.1171875 0.63671875
vt 0.11328125 0.63671875
vt 0.11328125 0.59765625
vt 0 0.52505546875
vt 0.0390625 0.536158984375
vt 0.0390625 0.58984375
vt 0 0.58984375
vt 0.234375 0.546875
vt 0.234375 0.4921875
vt 0.23828125 0.4921875
vt 0.23828125 0.546875
vt 0.21484375 0.48046875
vt 0.21484375 0.546875
vt 0.2109375 0.546875
vt 0.2109375 0.48046875
vn 0 1 0
vn -0.9335804832703474 0 -0.3583678016461645
vn 0.09798273935126979 -0.9618969302707514 -0.25525218573976266
vn 0.9335804832703474 0 0.3583678016461645
vn 0.35836987935480025 0 -0.9335796857104518
vn -0.3583698793548003 0 0.9335796857104519
usemtl turbine
f 145/513/129 146/514/129 147/515/129 148/516/129
f 148/517/130 147/518/130 149/519/130 150/520/130
f 150/521/131 149/522/131 151/523/131 152/524/131
f 152/525/132 151/526/132 146/527/132 145/528/132
f 146/529/133 151/530/133 149/531/133 147/532/133
f 152/533/134 145/534/134 148/535/134 150/536/134
o blade.3
v -0.341401875 0.275716875 0.302943125
v -0.183024375 0.11733874999999999 -0.280545
v -0.224283125 0.15859812499999998 -0.302943125
v -0.38266125 0.316975625 0.280545
v -0.83165875 -0.448778125 -0.302943125
v -1.115655 -0.41601875 0.280545
v -0.7904 -0.49003687500000004 -0.280545
v -1.07439625 -0.4572775 0.302943125
vt 0.12109375 0.63671875
vt 0.12109375 0.59765625
vt 0.125 0.59765625
vt 0.125 0.63671875
vt 0.35546875 0.61328125
vt 0.31640625 0.61328125
vt 0.31640625 0.5595960546875001
vt 0.35546875 0.54849296875
vt 0.50390625 1
vt 0.46484375 1
vt 0.46484375 0.99609375
vt 0.50390625 0.99609375
vt 0.359375 0.9296875
vt 0.3704782421875 0.890625
vt 0.42578125 0.890625
vt 0.42578125 0.9296875
vt 0.33203125 0.546875
vt 0.33203125 0.4921875
vt 0.3359375 0.4921875
vt 0.3359375 0.546875
vt 0.453125 0.84765625
vt 0.51953125 0.84765625
vt 0.51953125 0.8515625
vt 0.453125 0.8515625
vn 0.7071116282270327 0.7071019341103539 0.000001873887759860068
vn -0.6601414110683156 0.6601407317721101 -0.3583678719529922
vn -0.6108798909425828 -0.7494481266750872 -0.25525137465874875
vn 0.6601410714203751 -0.660141071420375 0.35836787195271635
vn 0.2534060223819333 -0.2534060223819333 -0.9335795497123609
vn -0.25340434955546565 0.2534043495554656 0.933580457835715
usemtl turbine
f 153/537/135 154/538/135 155/539/135 156/540/135
f 156/541/136 155/542/136 157/543/136 158/544/136
f 158/545/137 157/546/137 159/547/137 160/548/137
f 160/549/138 159/550/138 154/551/138 153/552/138
f 154/553/139 159/554/139 157/555/139 155/556/139
f 160/557/140 153/558/140 156/559/140 158/560/140
o blade.2
v -0.4 0.5828156250000001 0.302943125
v -0.4 0.358835625 -0.280545
v -0.4 0.417184375 -0.302943125
v -0.4 0.641164375 0.280545
v -1.25895875 0.417184375 -0.302943125
v -1.436610625 0.641164375 0.280545
v -1.25895875 0.358835625 -0.280545
v -1.436610625 0.5828156250000001 0.302943125
vt 0.359375 0.61328125
vt 0.359375 0.57421875
vt 0.36328125 0.57421875
vt 0.36328125 0.61328125
vt 0.114090234375 0.58984375
vt 0.114090234375 0.55078125
vt 0.167775 0.55078125
vt 0.178878515625 0.58984375
vt 0.18359375 0.53515625
vt 0.14453125 0.53515625
vt 0.14453125 0.53125
vt 0.18359375 0.53125
vt 0 0.6328125
vt 0.011103515625 0.59375
vt 0.06640625 0.59375
vt 0.06640625 0.6328125
vt 0.453125 0.83203125
vt 0.5078125 0.83203125
vt 0.5078125 0.8359375
vt 0.453125 0.8359375
vt 0.453125 0.83984375
vt 0.51953125 0.83984375
vt 0.51953125 0.84375
vt 0.453125 0.84375
vn 1 0 0
vn 0 0.9335804832703474 -0.3583678016461645
vn -0.9618969302707514 -0.09798273935126979 -0.25525218573976266
vn 0 -0.9335804832703474 0.3583678016461645
vn 0 -0.35836987935480025 -0.9335796857104518
vn 0 0.3583698793548003 0.9335796857104519
usemtl turbine
f 161/561/141 162/562/141 163/563/141 164/564/141
f 164/565/142 163/566/142 165/567/142 166/568/142
f 166/569/143 165/570/143 167/571/143 168/572/143
f 168/573/144 167/574/144 162/575/144 161/576/144
f 162/577/145 167/578/145 165/579/145 163/580/145
f 168/581/146 161/582/146 164/583/146 166/584/146
o blade.1
v -0.224283125 0.8414018750000001 0.302943125
v -0.38266125 0.683024375 -0.280545
v -0.341401875 0.724283125 -0.302943125
v -0.183024375 0.88266125 0.280545
v -0.948778125 1.33165875 -0.302943125
v -0.91601875 1.615655 0.280545
v -0.990036875 1.2904 -0.280545
v -0.9572775 1.57439625 0.302943125
vt 0.3671875 0.61328125
vt 0.3671875 0.57421875
vt 0.37109375 0.57421875
vt 0.37109375 0.61328125
vt 0.18359375 0.58984375
vt 0.18359375 0.55078125
vt 0.2372787890625 0.55078125
vt 0.248381796875 0.58984375
vt 0.29296875 0.53515625
vt 0.25390625 0.53515625
vt 0.25390625 0.53125
vt 0.29296875 0.53125
vt 0.109375 0.63671875
vt 0.0703125 0.625615625
vt 0.0703125 0.5703125
vt 0.109375 0.5703125
vt 0.453125 0.65234375
vt 0.5078125 0.65234375
vt 0.5078125 0.65625
vt 0.453125 0.65625
vt 0.21875 0.546875
vt 0.21875 0.48046875
vt 0.22265625 0.48046875
vt 0.22265625 0.546875
vn 0.7071019341103539 -0.7071116282270327 0.000001873887759860068
vn 0.6601407317721101 0.6601414110683156 -0.3583678719529922
vn -0.7494481266750872 0.6108798909425828 -0.25525137465874875
vn -0.660141071420375 -0.6601410714203751 0.35836787195271635
vn -0.2534060223819333 -0.2534060223819333 -0.9335795497123609
vn 0.2534043495554656 0.25340434955546565 0.933580457835715
usemtl turbine
f 169/585/147 170/586/147 171/587/147 172/588/147
f 172/589/148 171/590/148 173/591/148 174/592/148
f 174/593/149 173/594/149 175/595/149 176/596/149
f 176/597/150 175/598/150 170/599/150 169/600/150
f 170/601/151 175/602/151 173/603/151 171/604/151
f 176/605/152 169/606/152 172/607/152 174/608/152
o Cylinder.1
v 0 0.5 -0.375
v 0.4041975 0.66742375 -0.375
v 0.4041975 0.33257625 -0.375
v 0.444616875 0.68416625 0.375
v 0.444616875 0.31583375 0.375
v 0 0.5 0.375
v 0.16742375 0.09580250000000001 -0.375
v 0.18416625 0.05538312499999998 0.375
v -0.16742375 0.09580250000000001 -0.375
v -0.18416625 0.05538312499999998 0.375
v -0.4041975 0.33257625 -0.375
v -0.444616875 0.31583375 0.375
v -0.4041975 0.66742375 -0.375
v -0.444616875 0.68416625 0.375
v -0.16742375 0.9041975 -0.375
v -0.18416625 0.944616875 0.375
v 0.16742375 0.9041975 -0.375
v 0.18416625 0.944616875 0.375
vt 0.404296875 0.59583125
vt 0.379034375 0.6062953125
vt 0.379034375 0.5853671874999999
vt 0.40625 0.885672265625
vt 0.359375 0.88671875
vt 0.359375 0.8636976562500001
vt 0.40625 0.864744140625
vt 0.400835546875 0.776690625
vt 0.373046875 0.765180078125
vt 0.400835546875 0.75366953125
vt 0.404296875 0.59583125
vt 0.379034375 0.5853671874999999
vt 0.3938328125 0.5705687500000001
vt 0.4961736328125 0.7808275390625
vt 0.44921875 0.7808275390625
vt 0.449731796875 0.7578125
vt 0.49664 0.759904453125
vt 0.400835546875 0.75366953125
vt 0.373046875 0.765180078125
vt 0.384557421875 0.73739140625
vt 0.404296875 0.59583125
vt 0.3938328125 0.5705687500000001
vt 0.4147609375 0.5705687500000001
vt 0.1379734375 0.890625
vt 0.136926953125 0.84375
vt 0.159948046875 0.84375
vt 0.1589015625 0.890625
vt 0.384557421875 0.73739140625
vt 0.373046875 0.765180078125
vt 0.361536328125 0.73739140625
vt 0.404296875 0.59583125
vt 0.4147609375 0.5705687500000001
vt 0.429559375 0.5853671874999999
vt 0.3051099609375 0.54695484375
vt 0.3051099609375 0.5
vt 0.328125 0.5005128515625
vt 0.326033046875 0.5474211328125
vt 0.361536328125 0.73739140625
vt 0.373046875 0.765180078125
vt 0.345258203125 0.75366953125
vt 0.404296875 0.59583125
vt 0.429559375 0.5853671874999999
vt 0.429559375 0.6062953125
vt 0.44921875 0.731931640625
vt 0.49609375 0.7308851562500001
vt 0.49609375 0.75390625
vt 0.44921875 0.752859765625
vt 0.345258203125 0.75366953125
vt 0.373046875 0.765180078125
vt 0.345258203125 0.776690625
vt 0.404296875 0.59583125
vt 0.429559375 0.6062953125
vt 0.4147609375 0.62109375
vt 0.4374201171875 0.57421875
vt 0.484375 0.57421875
vt 0.483861953125 0.59765625
vt 0.43695375 0.595564296875
vt 0.345258203125 0.776690625
vt 0.373046875 0.765180078125
vt 0.361536328125 0.79296875
vt 0.404296875 0.59583125
vt 0.4147609375 0.62109375
vt 0.3938328125 0.62109375
vt 0.2878078125 0.67578125
vt 0.288854296875 0.72265625
vt 0.265833203125 0.72265625
vt 0.2668796875 0.67578125
vt 0.361536328125 0.79296875
vt 0.373046875 0.765180078125
vt 0.384557421875 0.79296875
vt 0.404296875 0.59583125
vt 0.3938328125 0.62109375
vt 0.379034375 0.6062953125
vt 0.421875 0.51945140625
vt 0.421875 0.56640625
vt 0.3984375 0.5658933984375
vt 0.400529453125 0.5189851171875
vt 0.384557421875 0.79296875
vt 0.373046875 0.765180078125
vt 0.400835546875 0.776690625
vn 0 0 -1
vn 0.998550954915613 0 -0.05381440733778972
vn 0 0 1
vn 0 0 -1
vn 0.7060821427563423 -0.7060821427563422 -0.05381463891196029
vn 0 0 1
vn 0 0 -1
vn 0 -0.998550954915613 -0.05381440733778972
vn 0 0 1
vn 0 0 -1
vn -0.7060821427563422 -0.7060821427563423 -0.05381463891196029
vn 0 0 1
vn 0 0 -1
vn -0.998550954915613 0 -0.05381440733778972
vn 0 0 1
vn 0 0 -1
vn -0.7060821427563423 0.7060821427563422 -0.05381463891196029
vn 0 0 1
vn 0 0 -1
vn 0 0.998550954915613 -0.05381440733778972
vn 0 0 1
vn 0 0 -1
vn 0.7060821427563422 0.7060821427563423 -0.05381463891196029
vn 0 0 1
usemtl turbine
f 177/608/153 178/609/153 179/610/153 177/608/153
f 178/612/154 180/613/154 181/614/154 179/615/154
f 180/615/155 182/616/155 181/617/155 180/615/155
f 177/618/156 179/619/156 183/620/156 177/618/156
f 179/622/157 181/623/157 184/624/157 183/625/157
f 181/625/158 182/626/158 184/627/158 181/625/158
f 177/628/159 183/629/159 185/630/159 177/628/159
f 183/632/160 184/633/160 186/634/160 185/635/160
f 184/635/161 182/636/161 186/637/161 184/635/161
f 177/638/162 185/639/162 187/640/162 177/638/162
f 185/642/163 186/643/163 188/644/163 187/645/163
f 186/645/164 182/646/164 188/647/164 186/645/164
f 177/648/165 187/649/165 189/650/165 177/648/165
f 187/652/166 188/653/166 190/654/166 189/655/166
f 188/655/167 182/656/167 190/657/167 188/655/167
f 177/658/168 189/659/168 191/660/168 177/658/168
f 189/662/169 190/663/169 192/664/169 191/665/169
f 190/665/170 182/666/170 192/667/170 190/665/170
f 177/668/171 191/669/171 193/670/171 177/668/171
f 191/672/172 192/673/172 194/674/172 193/675/172
f 192/675/173 182/676/173 194/677/173 192/675/173
f 177/678/174 193/679/174 178/680/174 177/678/174
f 193/682/175 194/683/175 180/684/175 178/685/175
f 194/685/176 182/686/176 180/687/176 194/685/176
o shaft
v -0.125 0.375 -0.5
v -0.125 0.625 -0.5
v 0.125 0.625 -0.5
v 0.125 0.375 -0.5
v 0.125 0.625 0.5
v 0.125 0.375 0.5
v -0.125 0.625 0.5
v -0.125 0.375 0.5
vt 0.015625 0.984375
vt 0.015625 1
vt 0 1
vt 0 0.984375
vt 0.11328125 0.97265625
vt 0.11328125 0.98828125
vt 0.05078125 0.98828125
vt 0.05078125 0.97265625
vt 0.1328125 0.9765625
vt 0.1328125 0.9921875
vt 0.1171875 0.9921875
vt 0.1171875 0.9765625
vt 0.1171875 0.8203125
vt 0.1171875 0.8359375
vt 0.0546875 0.8359375
vt 0.0546875 0.8203125
vt 0.01171875 0.94921875
vt 0.01171875 0.88671875
vt 0.02734375 0.88671875
vt 0.02734375 0.94921875
vt 0.16015625 0.80078125
vt 0.16015625 0.73828125
vt 0.17578125 0.73828125
vt 0.17578125 0.80078125
vn 0 0 -1
vn 1 0 0
vn 0 0 1
vn -1 0 0
vn 0 1 0
vn 0 -1 0
usemtl turbine
f 195/689/177 196/690/177 197/691/177 198/692/177
f 198/693/178 197/694/178 199/695/178 200/696/178
f 200/697/179 199/698/179 201/699/179 202/700/179
f 202/701/180 201/702/180 196/703/180 195/704/180
f 196/705/181 201/706/181 199/707/181 197/708/181
f 202/709/182 195/710/182 198/711/182 200/712/182